<svg xmlns="http://www.w3.org/2000/svg" width="1559.495" height="344.428" viewBox="0 0 1559.495 344.428"><g transform="translate(3347.706 21294.215)"><path d="M157.274,366.428a158.5,158.5,0,0,1-31.7-3.2,156.378,156.378,0,0,1-56.237-23.666,157.737,157.737,0,0,1-56.981-69.2A156.454,156.454,0,0,1,3.2,240.85a158.424,158.424,0,0,1-3.2-31.7V72.629A21.825,21.825,0,0,1,21.843,50.787H226.824a71.234,71.234,0,0,0-1.271,35.5H35.5V209.154a121.778,121.778,0,0,0,243.556,0V140.2a71.278,71.278,0,0,0,35.5-.988v69.939a158.424,158.424,0,0,1-3.2,31.7,156.4,156.4,0,0,1-23.665,56.236,157.76,157.76,0,0,1-69.2,56.982,156.408,156.408,0,0,1-29.522,9.164A158.5,158.5,0,0,1,157.274,366.428ZM294.887,120.141a49.079,49.079,0,0,1-15.835-2.607v-21.8c1.268.8,2.51,1.576,3.884,2.436,7.934,4.951,14.786,9.227,14.786,12.2l16.826-13.828v19.512A48.811,48.811,0,0,1,294.887,120.141ZM279.052,95.734v0a124.363,124.363,0,0,1-13.381-9.449h13.382v9.451ZM265.67,86.283h-17.5a49.347,49.347,0,0,1,1.906-35.5h20.586c.448,0,.706.1.787.291.261.625-1.334,2.232-3.542,4.457a59.922,59.922,0,0,0-8.244,9.658,17.983,17.983,0,0,0-2.48,5.709,9.421,9.421,0,0,0,.479,5.77c1.283,3,3.9,6.141,8.007,9.609Z" transform="translate(-3347.706 -21316.215)" fill="#fff"/><path d="M49,98A49.013,49.013,0,0,1,29.927,3.851a49.013,49.013,0,0,1,38.146,90.3A48.693,48.693,0,0,1,49,98ZM20,39.892V58.109H38.892V77H57.109V58.109H76V39.892H57.109V21H38.892V39.892Z" transform="translate(-3101.964 -21294.215)" fill="#47ed15"/><g transform="translate(-3278.898 -21203.43)"><path d="M1530.291-1230.106a27.451,27.451,0,0,1-39.706-.922,27.063,27.063,0,0,1-5.052-7.97,61.087,61.087,0,0,0-13.121-20.044l-1.541-1.541a62.856,62.856,0,0,0-20.558-13.661,27.4,27.4,0,0,1-9.861-6.916,27.545,27.545,0,0,1,0-36.959,27.43,27.43,0,0,1,23.561-8.787,56.962,56.962,0,0,0,35.069-7.456c12.324-7.107,28.745-11.158,43.21,3.307,14.32,14.32,10.223,30.787,3.142,43.171a58.664,58.664,0,0,0-7.259,35.431,27.372,27.372,0,0,1-7.885,22.35" transform="translate(-1433.333 1399.029)" fill="#fff"/><path d="M1521.579-1397.655c-9.94,9.94-24.642,11.362-32.823,3.175s-6.771-22.883,3.175-32.823,24.635-11.369,32.823-3.181,6.765,22.89-3.175,32.829" transform="translate(-1458.682 1447.096)" fill="#fff"/><path d="M1657.337-1420.517c-9.946,9.94-24.642,11.363-32.829,3.175s-6.765-22.883,3.175-32.823,24.642-11.363,32.829-3.175,6.765,22.883-3.175,32.823" transform="translate(-1527.372 1458.662)" fill="#fff"/><path d="M1682.7-1236.537c-9.94,9.946-11.362,24.642-3.175,32.829s22.883,6.765,32.83-3.175,11.362-24.642,3.175-32.829-22.883-6.765-32.829,3.175" transform="translate(-1555.208 1350.57)" fill="#fff"/><path d="M1705.563-1372.285c-9.94,9.94-11.363,24.635-3.175,32.823s22.883,6.771,32.829-3.175,11.363-24.635,3.175-32.823-22.883-6.771-32.829,3.175" transform="translate(-1566.778 1419.256)" fill="#fff"/></g><path d="M-364.812-146.407v33.31H-435.47v41.89h68.64V-37.9h-68.64V30.238H-470.3V-146.407ZM-257.563-27.8V-95.937h32.553V30.238h-32.553V16.107q-11.608,17.665-37.6,17.665-20.693,0-34.32-13.879Q-342.858,5.76-342.858-18.465V-95.937H-310.3V-22.5q0,12.365,6.687,19.179t18.3,6.813q12.87,0,20.314-7.949T-257.563-27.8Zm94.884-68.135v21.7a33.623,33.623,0,0,1,14.636-18.043,45.345,45.345,0,0,1,23.721-6.183v36.338a37.081,37.081,0,0,0-26.749,6.056q-11.608,7.823-11.608,25.992V30.238h-32.553V-95.937Zm89.837,0v21.7A33.624,33.624,0,0,1-58.205-92.278,45.345,45.345,0,0,1-34.484-98.46v36.338a37.081,37.081,0,0,0-26.749,6.056q-11.608,7.823-11.608,25.992V30.238h-32.553V-95.937ZM41.473-11.147l28.011-84.79h34.825L58.381,30.238Q48.539,57.492,32.263,69.731T-8.24,80.708V50.426q12.87.252,20.693-5.552T24.818,26.2L-26.914-95.937H8.668ZM205,33.771q-39.619,0-65.864-26.5Q113.141-18.97,113.141-58.084q0-39.367,25.992-65.359,26.245-26.5,65.864-26.5a90.036,90.036,0,0,1,44.288,11.23,82.216,82.216,0,0,1,31.67,30.408L250.925-90.89a46.626,46.626,0,0,0-18.674-18.548A55.435,55.435,0,0,0,205-116.125q-25.74,0-41.638,16.15-15.646,16.4-15.646,41.89,0,25.235,15.646,41.638Q179.257-.3,205-.3a56.155,56.155,0,0,0,27.38-6.687,45.209,45.209,0,0,0,18.548-18.3l30.03,17.412a82.216,82.216,0,0,1-31.67,30.408A90.037,90.037,0,0,1,205,33.771ZM397.541-81.048V-95.937h32.553V30.238H397.541V15.35Q382.9,33.771,356.408,33.771q-25.235,0-43.4-19.179Q295.087-4.838,295.087-32.849q0-27.759,17.917-47.19,18.169-19.431,43.4-19.431Q382.9-99.47,397.541-81.048ZM337.482-7.11q9.842,9.842,24.983,9.842T387.447-7.11q10.094-10.094,10.094-25.74T387.447-58.337q-9.842-10.094-24.983-10.094T337.482-58.337Q327.64-48.5,327.64-32.849T337.482-7.11ZM492.173-95.937v21.7a33.623,33.623,0,0,1,14.636-18.043A45.344,45.344,0,0,1,530.53-98.46v36.338a37.081,37.081,0,0,0-26.749,6.056q-11.608,7.823-11.608,25.992V30.238H459.62V-95.937ZM667.3-19.475H572.169Q578.477,4.246,607.75,4.246q18.674,0,28.263-12.618L662.258,6.77q-18.674,27-55.013,27-31.292,0-50.218-18.926T538.1-32.849q0-28.263,18.674-47.442Q575.2-99.47,604.722-99.47q28.011,0,45.675,19.179,18.169,19.179,18.169,47.442A89.738,89.738,0,0,1,667.3-19.475ZM571.664-44.71h64.35q-2.776-12.365-11.23-18.926A31.755,31.755,0,0,0,604.722-70.2q-13.122,0-21.7,6.687T571.664-44.71Z" transform="translate(-2456.777 -21064.328)" fill="#fff"/></g></svg>